<?xml version="1.0" encoding="utf-8"?>
<!-- Generator: Adobe Illustrator 13.0.0, SVG Export Plug-In . SVG Version: 6.00 Build 14948)  -->
<!DOCTYPE svg PUBLIC "-//W3C//DTD SVG 1.0//EN" "http://www.w3.org/TR/2001/REC-SVG-20010904/DTD/svg10.dtd">
<svg version="1.0" id="Layer_1" xmlns="http://www.w3.org/2000/svg" xmlns:xlink="http://www.w3.org/1999/xlink" x="0px" y="0px"
	 width="128px" height="128px" viewBox="0 0 128 128" enable-background="new 0 0 128 128" xml:space="preserve">
<polygon fill="#DBDBDB" points="-0.946,69.217 17.35,54.248 43.068,54.162 48.25,29.734 75.084,22.792 94.805,51.419 
	113.099,56.417 128.142,77.678 116.961,96.551 86.061,100.891 79.149,88.741 68.579,102.625 40.525,105.445 32.1,95.478 
	5.966,94.815 "/>
<polygon fill="#FFFFFF" points="51.502,31.904 74.066,26.264 92.246,50.688 72.44,30.385 "/>
<polygon fill="#FFFFFF" points="95.719,53.796 112.348,58.488 126.172,77.578 122.715,83.219 122.715,77.795 110.722,61.308 
	96.999,56.721 89.504,59.28 "/>
<polygon fill="#FFFFFF" points="12.333,61.406 18.025,56.417 43.415,55.878 52.373,68.858 41.971,58.549 18.431,59.237 "/>
<polygon fill="#B6B6B6" points="0.681,70.952 7.592,92.646 31.551,93.467 9.219,88.741 "/>
<polygon fill="#B6B6B6" points="34.659,95.478 41.614,103.823 67.025,101.438 42.833,100.569 "/>
<polygon fill="#B6B6B6" points="77.93,84.837 86.467,99.587 116.147,95.467 88.297,96.116 "/>
<polygon points="93.343,71.529 90.418,79.207 93.343,81.584 96.268,79.207 "/>
<polygon fill="#404040" points="93.343,73.905 95.536,79.024 92.794,77.562 "/>
<polygon points="107.938,71.498 105.014,79.176 107.938,81.553 110.863,79.176 "/>
<polygon fill="#404040" points="107.938,73.874 110.132,78.993 107.39,77.53 "/>
<polygon points="92.665,89.044 102.217,91.24 111.062,88.625 112.062,87.125 113.871,88.861 112.625,90.75 111.188,89.75 
	102.217,92.923 92.848,90.141 91.751,91.238 90.472,89.775 91.568,87.765 "/>
<polygon fill="#404040" points="112.562,87.812 112.688,88.562 113.5,88.875 "/>
<polygon fill="#404040" points="91.688,88.188 92.611,89.079 91.625,89.062 "/>
<polygon fill="#404040" points="92.938,89.375 101.875,91.5 104.938,90.625 101.812,92.125 "/>
</svg>
