<?xml version="1.0" standalone="no"?><svg width="256" height="256" viewBox="0 0 256 256" version="1.1" xmlns="http://www.w3.org/2000/svg">

<path d="M226,26 Q 244,73 23 105 T 63 117" stroke="green" stroke-width="3.75" fill="none" stroke-opacity="0.4375" transform="" /><path d="M226,26 Q 244,73 23 105 T 63 117" stroke="green" stroke-width="3.75" fill="none" stroke-opacity="0.4375" transform="rotate(32.72727272727273 128 128)" /><path d="M226,26 Q 244,73 23 105 T 63 117" stroke="green" stroke-width="3.75" fill="none" stroke-opacity="0.4375" transform="rotate(65.45454545454545 128 128)" /><path d="M226,26 Q 244,73 23 105 T 63 117" stroke="green" stroke-width="3.75" fill="none" stroke-opacity="0.4375" transform="rotate(98.18181818181819 128 128)" /><path d="M226,26 Q 244,73 23 105 T 63 117" stroke="green" stroke-width="3.75" fill="none" stroke-opacity="0.4375" transform="rotate(130.9090909090909 128 128)" /><path d="M226,26 Q 244,73 23 105 T 63 117" stroke="green" stroke-width="3.75" fill="none" stroke-opacity="0.4375" transform="rotate(163.63636363636363 128 128)" /><path d="M226,26 Q 244,73 23 105 T 63 117" stroke="green" stroke-width="3.75" fill="none" stroke-opacity="0.4375" transform="rotate(196.36363636363637 128 128)" /><path d="M226,26 Q 244,73 23 105 T 63 117" stroke="green" stroke-width="3.75" fill="none" stroke-opacity="0.4375" transform="rotate(229.0909090909091 128 128)" /><path d="M226,26 Q 244,73 23 105 T 63 117" stroke="green" stroke-width="3.75" fill="none" stroke-opacity="0.4375" transform="rotate(261.8181818181818 128 128)" /><path d="M226,26 Q 244,73 23 105 T 63 117" stroke="green" stroke-width="3.75" fill="none" stroke-opacity="0.4375" transform="rotate(294.54545454545456 128 128)" /><path d="M226,26 Q 244,73 23 105 T 63 117" stroke="green" stroke-width="3.75" fill="none" stroke-opacity="0.4375" transform="rotate(327.27272727272725 128 128)" />

<rect stroke="blue" stroke-width="3.75" x="24" y="30" width="92" height="166" fill="none" stroke-opacity="0.3875" transform="" /><rect stroke="blue" stroke-width="3.75" x="24" y="30" width="92" height="166" fill="none" stroke-opacity="0.3875" transform="rotate(-51.42857142857143 128 128)" /><rect stroke="blue" stroke-width="3.75" x="24" y="30" width="92" height="166" fill="none" stroke-opacity="0.3875" transform="rotate(-102.85714285714286 128 128)" /><rect stroke="blue" stroke-width="3.75" x="24" y="30" width="92" height="166" fill="none" stroke-opacity="0.3875" transform="rotate(-154.28571428571428 128 128)" /><rect stroke="blue" stroke-width="3.75" x="24" y="30" width="92" height="166" fill="none" stroke-opacity="0.3875" transform="rotate(-205.71428571428572 128 128)" /><rect stroke="blue" stroke-width="3.75" x="24" y="30" width="92" height="166" fill="none" stroke-opacity="0.3875" transform="rotate(-257.14285714285717 128 128)" /><rect stroke="blue" stroke-width="3.75" x="24" y="30" width="92" height="166" fill="none" stroke-opacity="0.3875" transform="rotate(-308.57142857142856 128 128)" />

<path d="M68,40 A 148,96 0 0 0 243 49 A 148,96 0 1 1 68,40" stroke="red" stroke-width="2.75" fill="none" stroke-opacity="0.5625" transform="" /><path d="M68,40 A 148,96 0 0 0 243 49 A 148,96 0 1 1 68,40" stroke="red" stroke-width="2.75" fill="none" stroke-opacity="0.5625" transform="rotate(60.0 128 128)" /><path d="M68,40 A 148,96 0 0 0 243 49 A 148,96 0 1 1 68,40" stroke="red" stroke-width="2.75" fill="none" stroke-opacity="0.5625" transform="rotate(120.0 128 128)" /><path d="M68,40 A 148,96 0 0 0 243 49 A 148,96 0 1 1 68,40" stroke="red" stroke-width="2.75" fill="none" stroke-opacity="0.5625" transform="rotate(180.0 128 128)" /><path d="M68,40 A 148,96 0 0 0 243 49 A 148,96 0 1 1 68,40" stroke="red" stroke-width="2.75" fill="none" stroke-opacity="0.5625" transform="rotate(240.0 128 128)" /><path d="M68,40 A 148,96 0 0 0 243 49 A 148,96 0 1 1 68,40" stroke="red" stroke-width="2.75" fill="none" stroke-opacity="0.5625" transform="rotate(300.0 128 128)" />

</svg>
